<?xml version="1.0" standalone="no"?>
<!DOCTYPE svg PUBLIC "-//W3C//DTD SVG 20010904//EN"
 "http://www.w3.org/TR/2001/REC-SVG-20010904/DTD/svg10.dtd">
<svg version="1.0" xmlns="http://www.w3.org/2000/svg"
 width="96.000000pt" height="96.000000pt" viewBox="0 0 96.000000 96.000000"
 preserveAspectRatio="xMidYMid meet">
<metadata>
Created by potrace 1.14, written by Peter Selinger 2001-2017
</metadata>
<g transform="translate(0.000000,96.000000) scale(0.100000,-0.100000)"
fill="#000000" stroke="none">
<path d="M435 744 c-27 -2 -69 -6 -92 -10 l-43 -5 0 -233 0 -233 38 -7 c74
-12 72 -14 72 74 0 74 2 80 21 80 16 0 29 -20 64 -94 l43 -94 63 -11 c34 -6
64 -9 66 -7 3 2 -19 50 -48 107 -32 65 -47 105 -40 107 25 8 69 53 81 82 18
43 9 144 -17 178 -41 55 -100 73 -208 66z m85 -114 c35 -19 33 -88 -4 -112 -6
-4 -32 -8 -58 -8 l-48 0 0 65 0 65 46 0 c25 0 54 -4 64 -10z"/>
</g>
</svg>
