<svg width="24" height="24" viewBox="0 0 24 24" fill="none" xmlns="http://www.w3.org/2000/svg">
<path fill-rule="evenodd" clip-rule="evenodd" d="M5.55 10.02C5.54934 9.17279 5.71573 8.33376 6.03964 7.55092C6.36355 6.76807 6.83863 6.05677 7.4377 5.4577C8.03676 4.85863 8.74807 4.38355 9.53091 4.05964C10.3138 3.73573 11.1528 3.56934 12 3.57C12.8472 3.56934 13.6862 3.73573 14.4691 4.05964C15.2519 4.38355 15.9632 4.85863 16.5623 5.4577C17.1614 6.05677 17.6365 6.76807 17.9604 7.55092C18.2843 8.33376 18.4507 9.17279 18.45 10.02V16.871H5.55V10.021V10.02ZM4.05 16.871V10.021C4.04921 8.97672 4.2543 7.94253 4.65353 6.97758C5.05276 6.01263 5.63831 5.13585 6.37668 4.39739C7.11505 3.65893 7.99176 3.07327 8.95666 2.67392C9.92156 2.27456 10.9557 2.06934 12 2.07C13.0442 2.06934 14.0783 2.27453 15.0431 2.67382C16.0079 3.07311 16.8846 3.65868 17.623 4.39704C18.3613 5.13539 18.9469 6.01206 19.3462 6.97689C19.7455 7.94173 19.9507 8.97581 19.95 10.02V16.87H20.402C20.6009 16.87 20.7917 16.949 20.9323 17.0897C21.073 17.2303 21.152 17.4211 21.152 17.62C21.152 17.8189 21.073 18.0097 20.9323 18.1503C20.7917 18.291 20.6009 18.37 20.402 18.37H3.602C3.40309 18.37 3.21232 18.291 3.07167 18.1503C2.93102 18.0097 2.852 17.8189 2.852 17.62C2.852 17.4211 2.93102 17.2303 3.07167 17.0897C3.21232 16.949 3.40309 16.87 3.602 16.87H4.051L4.05 16.871ZM9.55 21.199C9.55 21.0001 9.62902 20.8093 9.76967 20.6687C9.91032 20.528 10.1011 20.449 10.3 20.449H13.7C13.8989 20.449 14.0897 20.528 14.2303 20.6687C14.371 20.8093 14.45 21.0001 14.45 21.199C14.45 21.3979 14.371 21.5887 14.2303 21.7293C14.0897 21.87 13.8989 21.949 13.7 21.949H10.3C10.1011 21.949 9.91032 21.87 9.76967 21.7293C9.62902 21.5887 9.55 21.3979 9.55 21.199Z" fill="black"/>
</svg>
