<svg width="24" height="24" viewBox="0 0 24 24" fill="none" xmlns="http://www.w3.org/2000/svg">
<path fill-rule="evenodd" clip-rule="evenodd" d="M2.74886 3.49971C2.74886 3.08571 3.08486 2.74971 3.49886 2.74971H8.49857C8.91343 2.74971 9.24857 3.08571 9.24857 3.49971V20.5003C9.24857 20.6992 9.16955 20.89 9.0289 21.0306C8.88825 21.1713 8.69748 21.2503 8.49857 21.2503H3.49886C3.29994 21.2503 3.10918 21.1713 2.96853 21.0306C2.82787 20.89 2.74886 20.6992 2.74886 20.5003V3.49971ZM4.24886 4.24971V19.7503H7.74857V4.24971H4.24886Z" fill="black"/>
<path fill-rule="evenodd" clip-rule="evenodd" d="M7.74857 3.49971C7.74857 3.08571 8.08285 2.74971 8.49771 2.74971H13.4974C13.9123 2.74971 14.2474 3.08571 14.2474 3.49971V20.5003C14.2474 20.6992 14.1684 20.89 14.0278 21.0306C13.8871 21.1713 13.6963 21.2503 13.4974 21.2503H8.49771C8.2988 21.2503 8.10803 21.1713 7.96738 21.0306C7.82673 20.89 7.74771 20.6992 7.74771 20.5003V3.49971H7.74857ZM9.24857 4.24971V19.7503H12.7474V4.24971H9.24857Z" fill="black"/>
<path fill-rule="evenodd" clip-rule="evenodd" d="M13.0243 6.294C12.973 6.10191 13.0001 5.89731 13.0995 5.72517C13.199 5.55303 13.3628 5.42744 13.5549 5.376L18.384 4.08171C18.4792 4.05618 18.5784 4.04965 18.6761 4.0625C18.7738 4.07535 18.868 4.10733 18.9534 4.1566C19.0387 4.20587 19.1135 4.27148 19.1735 4.34967C19.2334 4.42786 19.2774 4.51709 19.3029 4.61228L23.1857 19.1006C23.2112 19.1958 23.2177 19.2951 23.2048 19.3929C23.1919 19.4906 23.1599 19.5848 23.1105 19.6702C23.0612 19.7555 22.9955 19.8303 22.9172 19.8902C22.8389 19.9502 22.7496 19.9941 22.6543 20.0194L17.8251 21.3137C17.7299 21.3392 17.6306 21.3457 17.5329 21.3328C17.4351 21.3199 17.3409 21.2879 17.2555 21.2385C17.1702 21.1891 17.0954 21.1234 17.0355 21.0452C16.9756 20.9669 16.9317 20.8776 16.9063 20.7823L13.0243 6.29486V6.294ZM14.6674 6.63L18.1629 19.6714L21.5434 18.7654L18.0489 5.72571L14.6683 6.63086L14.6674 6.63Z" fill="black"/>
</svg>
