<svg width="24" height="24" viewBox="0 0 24 24" fill="none" xmlns="http://www.w3.org/2000/svg">
<path fill-rule="evenodd" clip-rule="evenodd" d="M0.25 3C0.25 2.80109 0.329018 2.61032 0.46967 2.46967C0.610322 2.32902 0.801088 2.25 1 2.25H3.838C4.178 2.25 4.477 2.48 4.563 2.81L5.314 5.676C5.38742 5.65275 5.46398 5.64094 5.541 5.641H22C22.12 5.64102 22.2382 5.66982 22.3447 5.72498C22.4513 5.78015 22.543 5.86007 22.6123 5.95803C22.6816 6.056 22.7263 6.16915 22.7428 6.28799C22.7593 6.40683 22.747 6.52788 22.707 6.641L19.302 16.251C19.2501 16.397 19.1543 16.5234 19.0277 16.6127C18.9011 16.7021 18.75 16.7501 18.595 16.75H7.243C7.07726 16.7499 6.91623 16.6949 6.78507 16.5936C6.6539 16.4922 6.55999 16.3503 6.518 16.19L3.259 3.75H1C0.801088 3.75 0.610322 3.67098 0.46967 3.53033C0.329018 3.38968 0.25 3.19891 0.25 3ZM5.698 7.141L7.822 15.25H18.065L20.938 7.141H5.699H5.698ZM9 20.5C9 20.8978 8.84196 21.2794 8.56066 21.5607C8.27936 21.842 7.89782 22 7.5 22C7.10218 22 6.72064 21.842 6.43934 21.5607C6.15804 21.2794 6 20.8978 6 20.5C6 20.1022 6.15804 19.7206 6.43934 19.4393C6.72064 19.158 7.10218 19 7.5 19C7.89782 19 8.27936 19.158 8.56066 19.4393C8.84196 19.7206 9 20.1022 9 20.5ZM18.5 22C18.8978 22 19.2794 21.842 19.5607 21.5607C19.842 21.2794 20 20.8978 20 20.5C20 20.1022 19.842 19.7206 19.5607 19.4393C19.2794 19.158 18.8978 19 18.5 19C18.1022 19 17.7206 19.158 17.4393 19.4393C17.158 19.7206 17 20.1022 17 20.5C17 20.8978 17.158 21.2794 17.4393 21.5607C17.7206 21.842 18.1022 22 18.5 22Z" fill="black"/>
</svg>
