<svg width="24" height="24" viewBox="0 0 24 24" fill="none" xmlns="http://www.w3.org/2000/svg">
<path fill-rule="evenodd" clip-rule="evenodd" d="M6.75733 2.45333C6.63316 2.57719 6.53465 2.72432 6.46743 2.88631C6.40022 3.0483 6.36562 3.22195 6.36562 3.39733C6.36562 3.57271 6.40022 3.74637 6.46743 3.90836C6.53465 4.07034 6.63316 4.21748 6.75733 4.34133L14.4133 11.9973L6.75733 19.656C6.51446 19.9075 6.38006 20.2443 6.3831 20.5939C6.38614 20.9435 6.52636 21.2779 6.77358 21.5251C7.02079 21.7723 7.3552 21.9125 7.7048 21.9156C8.05439 21.9186 8.3912 21.7842 8.64267 21.5413L17.2427 12.9413C17.4926 12.6913 17.633 12.3522 17.633 11.9987C17.633 11.6451 17.4926 11.306 17.2427 11.056L8.64 2.45333C8.38996 2.20337 8.05089 2.06295 7.69733 2.06295C7.34378 2.06295 7.0047 2.20337 6.75467 2.45333H6.75733Z" fill="black"/>
</svg>
