<svg width="24" height="24" viewBox="0 0 24 24" fill="none" xmlns="http://www.w3.org/2000/svg">
<path fill-rule="evenodd" clip-rule="evenodd" d="M14.687 6.3H9.314C8.91824 6.29987 8.52634 6.37771 8.16067 6.52906C7.795 6.68042 7.46273 6.90234 7.18284 7.18213C6.90295 7.46193 6.68093 7.79413 6.52945 8.15975C6.37797 8.52536 6.3 8.91724 6.3 9.313V14.686C6.29987 15.0818 6.37774 15.4738 6.52916 15.8396C6.68058 16.2053 6.90259 16.5376 7.18249 16.8175C7.46239 17.0974 7.7947 17.3194 8.16044 17.4708C8.52617 17.6223 8.91816 17.7001 9.314 17.7H14.687C15.4859 17.7 16.2521 17.3827 16.8172 16.8179C17.3822 16.253 17.6997 15.4869 17.7 14.688V9.313C17.7001 8.91729 17.6223 8.52543 17.4709 8.15982C17.3195 7.79421 17.0976 7.462 16.8178 7.1822C16.538 6.90239 16.2058 6.68046 15.8402 6.52908C15.4746 6.37771 15.0827 6.29987 14.687 6.3ZM14.687 5H9.314C8.17003 5 7.0729 5.45437 6.2639 6.26319C5.45489 7.072 5.00027 8.16903 5 9.313V14.686C4.99987 15.2526 5.11136 15.8136 5.32812 16.3371C5.54487 16.8605 5.86263 17.3361 6.26325 17.7368C6.66387 18.1374 7.13949 18.4551 7.66295 18.6719C8.18641 18.8886 8.74744 19.0001 9.314 19H14.687C15.2533 19.0001 15.8142 18.8887 16.3374 18.6721C16.8607 18.4554 17.3362 18.1378 17.7367 17.7374C18.1372 17.337 18.4549 16.8616 18.6717 16.3384C18.8884 15.8151 19 15.2543 19 14.688V9.313C19.0004 8.7465 18.8891 8.18548 18.6725 7.66202C18.4559 7.13857 18.1382 6.66295 17.7376 6.26237C17.3371 5.86179 16.8614 5.54411 16.338 5.32751C15.8145 5.1109 15.2535 4.99961 14.687 5ZM16.558 8.28C16.5579 8.40305 16.5335 8.52487 16.4863 8.6385C16.4391 8.75213 16.37 8.85535 16.2829 8.94227C16.1958 9.02918 16.0924 9.09809 15.9787 9.14506C15.8649 9.19203 15.743 9.21613 15.62 9.216C15.497 9.21587 15.3751 9.1915 15.2615 9.14429C15.1479 9.09708 15.0447 9.02795 14.9577 8.94085C14.8708 8.85375 14.8019 8.75038 14.7549 8.63665C14.708 8.52292 14.6839 8.40105 14.684 8.278C14.6841 8.15495 14.7084 8.03312 14.7555 7.91946C14.8027 7.80581 14.8717 7.70255 14.9588 7.61559C15.0458 7.52863 15.1492 7.45966 15.2629 7.41263C15.3766 7.36561 15.4985 7.34144 15.6215 7.3415C15.7445 7.34157 15.8664 7.36587 15.98 7.41302C16.0937 7.46017 16.197 7.52924 16.2839 7.6163C16.3709 7.70335 16.4398 7.80668 16.4869 7.92039C16.5339 8.0341 16.5581 8.15595 16.558 8.279V8.28ZM14.2 12C14.2 12.5835 13.9682 13.1431 13.5556 13.5556C13.1431 13.9682 12.5835 14.2 12 14.2C11.4165 14.2 10.8569 13.9682 10.4444 13.5556C10.0318 13.1431 9.8 12.5835 9.8 12C9.8 11.4165 10.0318 10.8569 10.4444 10.4444C10.8569 10.0318 11.4165 9.8 12 9.8C12.5835 9.8 13.1431 10.0318 13.5556 10.4444C13.9682 10.8569 14.2 11.4165 14.2 12ZM15.5 12C15.5 12.4596 15.4095 12.9148 15.2336 13.3394C15.0577 13.764 14.7999 14.1499 14.4749 14.4749C14.1499 14.7999 13.764 15.0577 13.3394 15.2336C12.9148 15.4095 12.4596 15.5 12 15.5C11.5404 15.5 11.0852 15.4095 10.6606 15.2336C10.236 15.0577 9.85013 14.7999 9.52513 14.4749C9.20012 14.1499 8.94231 13.764 8.76642 13.3394C8.59053 12.9148 8.5 12.4596 8.5 12C8.5 11.0717 8.86875 10.1815 9.52513 9.52513C10.1815 8.86875 11.0717 8.5 12 8.5C12.9283 8.5 13.8185 8.86875 14.4749 9.52513C15.1313 10.1815 15.5 11.0717 15.5 12Z" fill="black"/>
</svg>
