<svg width="24" height="24" viewBox="0 0 24 24" fill="none" xmlns="http://www.w3.org/2000/svg">
<path fill-rule="evenodd" clip-rule="evenodd" d="M3.24923 6.99969C3.24923 6.58615 3.58523 6.25015 3.99969 6.25015H19.9994C20.1983 6.25015 20.3891 6.32917 20.5297 6.46982C20.6704 6.61047 20.7494 6.80124 20.7494 7.00015C20.7494 7.19907 20.6704 7.38983 20.5297 7.53048C20.3891 7.67113 20.1983 7.75015 19.9994 7.75015H3.99969C3.80082 7.74991 3.61017 7.67073 3.46963 7.53002C3.32909 7.38931 3.25015 7.19857 3.25015 6.99969H3.24923ZM3.24923 12C3.24923 11.5855 3.58523 11.2495 3.99969 11.2495H19.9994C20.1984 11.2495 20.3893 11.3286 20.53 11.4693C20.6708 11.6101 20.7498 11.801 20.7498 12C20.7498 12.199 20.6708 12.3899 20.53 12.5307C20.3893 12.6714 20.1984 12.7505 19.9994 12.7505H3.99969C3.80082 12.7502 3.61017 12.671 3.46963 12.5303C3.32909 12.3896 3.25015 12.1989 3.25015 12H3.24923ZM3.24923 17.0003C3.24923 16.5858 3.58523 16.2498 3.99969 16.2498H19.9994C20.1983 16.2498 20.3891 16.3289 20.5297 16.4695C20.6704 16.6102 20.7494 16.8009 20.7494 16.9998C20.7494 17.1988 20.6704 17.3895 20.5297 17.5302C20.3891 17.6708 20.1983 17.7498 19.9994 17.7498H3.99969C3.80098 17.7496 3.61047 17.6706 3.46996 17.53C3.32944 17.3895 3.2504 17.199 3.25015 17.0003H3.24923Z" fill="black"/>
</svg>
