<svg width="24" height="24" viewBox="0 0 24 24" fill="none" xmlns="http://www.w3.org/2000/svg">
<path fill-rule="evenodd" clip-rule="evenodd" d="M16.026 9.862C16.026 11.4967 15.3766 13.0644 14.2208 14.2203C13.0649 15.3761 11.4972 16.0255 9.8625 16.0255C8.22784 16.0255 6.66013 15.3761 5.50425 14.2203C4.34837 13.0644 3.699 11.4967 3.699 9.862C3.699 8.22734 4.34837 6.65963 5.50425 5.50374C6.66013 4.34786 8.22784 3.6985 9.8625 3.6985C11.4972 3.6985 13.0649 4.34786 14.2208 5.50374C15.3766 6.65963 16.026 8.22734 16.026 9.862ZM14.843 15.686C13.3448 16.9654 11.4115 17.6187 9.44435 17.5101C7.47722 17.4016 5.62747 16.5395 4.27919 15.103C2.93091 13.6665 2.18768 11.766 2.20384 9.7959C2.22 7.82585 2.9943 5.9377 4.36596 4.52351C5.73762 3.10933 7.60126 2.27777 9.5699 2.20149C11.5385 2.12522 13.4609 2.81009 14.9379 4.1139C16.4149 5.41771 17.333 7.24029 17.5015 9.20319C17.67 11.1661 17.0761 13.1185 15.843 14.655C15.909 14.69 15.973 14.735 16.029 14.792L21.429 20.192C21.5615 20.3342 21.6336 20.5222 21.6302 20.7165C21.6267 20.9108 21.548 21.0962 21.4106 21.2336C21.2732 21.371 21.0878 21.4497 20.8935 21.4532C20.6992 21.4566 20.5112 21.3845 20.369 21.252L14.969 15.852C14.9194 15.8028 14.877 15.747 14.843 15.686Z" fill="black"/>
</svg>
