<svg width="24" height="24" viewBox="0 0 24 24" fill="none" xmlns="http://www.w3.org/2000/svg">
<path fill-rule="evenodd" clip-rule="evenodd" d="M12 2.07001C10.1994 2.07065 8.45226 2.68231 7.04444 3.80494C5.63662 4.92756 4.65142 6.4947 4.25 8.25001H3.4C3.0387 8.24974 2.68088 8.32068 2.34701 8.45877C2.01313 8.59685 1.70974 8.79937 1.45416 9.05476C1.19859 9.31014 0.995848 9.61339 0.857522 9.94717C0.719197 10.2809 0.648 10.6387 0.648 11V13C0.648 13.7294 0.937731 14.4288 1.45346 14.9446C1.96918 15.4603 2.66865 15.75 3.398 15.75H4.798C4.99691 15.75 5.18768 15.671 5.32833 15.5303C5.46898 15.3897 5.548 15.1989 5.548 15V14.426C5.54946 14.406 5.55012 14.386 5.55 14.366V10.02C5.55 8.30936 6.22955 6.66878 7.43916 5.45917C8.64877 4.24956 10.2894 3.57001 12 3.57001C13.7106 3.57001 15.3512 4.24956 16.5608 5.45917C17.7704 6.66878 18.45 8.30936 18.45 10.02V14.963C18.4498 16.0772 18.0707 17.1581 17.3748 18.0282C16.679 18.8984 15.7078 19.5059 14.621 19.751C14.4449 19.2518 14.0984 18.8306 13.6425 18.5616C13.1865 18.2926 12.6503 18.1929 12.1282 18.2802C11.606 18.3675 11.1314 18.6361 10.7877 19.0388C10.444 19.4414 10.2533 19.9524 10.2492 20.4818C10.245 21.0111 10.4277 21.525 10.765 21.933C11.1023 22.3411 11.5727 22.6171 12.0934 22.7125C12.6141 22.808 13.1518 22.7168 13.6119 22.455C14.072 22.1931 14.4251 21.7774 14.609 21.281C15.9688 21.051 17.2182 20.3887 18.1717 19.3923C19.1252 18.3959 19.732 17.1186 19.902 15.75H20.601C20.9621 15.75 21.3197 15.6789 21.6534 15.5407C21.987 15.4025 22.2902 15.1999 22.5455 14.9446C22.8009 14.6892 23.0035 14.386 23.1417 14.0524C23.2799 13.7187 23.351 13.3611 23.351 13V11C23.351 10.6389 23.2799 10.2813 23.1417 9.94763C23.0035 9.61398 22.8009 9.31082 22.5455 9.05546C22.2902 8.8001 21.987 8.59754 21.6534 8.45934C21.3197 8.32114 20.9621 8.25001 20.601 8.25001H19.752C19.3505 6.49436 18.365 4.92698 16.9568 3.80431C15.5485 2.68165 13.801 2.0702 12 2.07001ZM11.25 11C11.25 10.8011 11.171 10.6103 11.0303 10.4697C10.8897 10.329 10.6989 10.25 10.5 10.25C10.3011 10.25 10.1103 10.329 9.96967 10.4697C9.82902 10.6103 9.75 10.8011 9.75 11V11.8C9.75 11.9989 9.82902 12.1897 9.96967 12.3303C10.1103 12.471 10.3011 12.55 10.5 12.55C10.6989 12.55 10.8897 12.471 11.0303 12.3303C11.171 12.1897 11.25 11.9989 11.25 11.8V11ZM13.5 10.25C13.6989 10.25 13.8897 10.329 14.0303 10.4697C14.171 10.6103 14.25 10.8011 14.25 11V11.8C14.25 11.9989 14.171 12.1897 14.0303 12.3303C13.8897 12.471 13.6989 12.55 13.5 12.55C13.3011 12.55 13.1103 12.471 12.9697 12.3303C12.829 12.1897 12.75 11.9989 12.75 11.8V11C12.75 10.8011 12.829 10.6103 12.9697 10.4697C13.1103 10.329 13.3011 10.25 13.5 10.25ZM11.75 20.5C11.75 20.4015 11.7694 20.304 11.8071 20.213C11.8448 20.122 11.9 20.0393 11.9697 19.9697C12.0393 19.9 12.122 19.8448 12.213 19.8071C12.304 19.7694 12.4015 19.75 12.5 19.75C12.5985 19.75 12.696 19.7694 12.787 19.8071C12.878 19.8448 12.9607 19.9 13.0303 19.9697C13.1 20.0393 13.1552 20.122 13.1929 20.213C13.2306 20.304 13.25 20.4015 13.25 20.5C13.25 20.6989 13.171 20.8897 13.0303 21.0303C12.8897 21.171 12.6989 21.25 12.5 21.25C12.3011 21.25 12.1103 21.171 11.9697 21.0303C11.829 20.8897 11.75 20.6989 11.75 20.5ZM3.398 9.75001C2.708 9.75001 2.148 10.31 2.148 11V13C2.148 13.69 2.708 14.25 3.398 14.25H4.048V9.75001H3.398ZM21.852 11C21.852 10.31 21.292 9.75001 20.602 9.75001H19.952V14.25H20.602C21.292 14.25 21.852 13.69 21.852 13V11Z" fill="black"/>
</svg>
