<svg width="24" height="24" viewBox="0 0 24 24" fill="none" xmlns="http://www.w3.org/2000/svg">
<path fill-rule="evenodd" clip-rule="evenodd" d="M17.75 4.60999C17.7499 4.31237 17.6739 4.01968 17.5292 3.75961C17.3845 3.49953 17.1758 3.28067 16.9229 3.1237C16.6701 2.96673 16.3813 2.87685 16.0841 2.86256C15.7868 2.84826 15.4908 2.91002 15.224 3.04199L7.734 6.74999H5C4.53587 6.74999 4.09075 6.93437 3.76256 7.26256C3.43437 7.59074 3.25 8.03586 3.25 8.49999V15.5C3.25 16.466 4.034 17.25 5 17.25H7.734L15.224 20.957C15.4908 21.089 15.7868 21.1507 16.0841 21.1364C16.3813 21.1221 16.6701 21.0323 16.9229 20.8753C17.1758 20.7183 17.3845 20.4995 17.5292 20.2394C17.6739 19.9793 17.7499 19.6866 17.75 19.389V4.61099V4.60999ZM15.89 4.38699C15.9281 4.36834 15.9703 4.35967 16.0126 4.36181C16.055 4.36395 16.0961 4.37683 16.1321 4.39923C16.1681 4.42163 16.1978 4.45282 16.2184 4.48986C16.239 4.52691 16.2499 4.56859 16.25 4.61099V19.389C16.2499 19.4314 16.239 19.4731 16.2184 19.5101C16.1978 19.5472 16.1681 19.5784 16.1321 19.6008C16.0961 19.6232 16.055 19.636 16.0126 19.6382C15.9703 19.6403 15.9281 19.6317 15.89 19.613L8.242 15.828L8.085 15.75H5C4.9337 15.75 4.87011 15.7237 4.82322 15.6768C4.77634 15.6299 4.75 15.5663 4.75 15.5V8.49999C4.75 8.46716 4.75647 8.43465 4.76903 8.40432C4.78159 8.37399 4.80001 8.34643 4.82322 8.32322C4.84644 8.3 4.874 8.28159 4.90433 8.26902C4.93466 8.25646 4.96717 8.24999 5 8.24999H8.085L8.242 8.17199L15.889 4.38699H15.89ZM21.35 10.301C21.35 10.1021 21.271 9.91131 21.1303 9.77066C20.9897 9.63001 20.7989 9.55099 20.6 9.55099C20.4011 9.55099 20.2103 9.63001 20.0697 9.77066C19.929 9.91131 19.85 10.1021 19.85 10.301V13.701C19.85 13.8999 19.929 14.0907 20.0697 14.2313C20.2103 14.372 20.4011 14.451 20.6 14.451C20.7989 14.451 20.9897 14.372 21.1303 14.2313C21.271 14.0907 21.35 13.8999 21.35 13.701V10.301Z" fill="black"/>
</svg>
