<svg width="24" height="24" viewBox="0 0 24 24" fill="none" xmlns="http://www.w3.org/2000/svg">
<path fill-rule="evenodd" clip-rule="evenodd" d="M12 8.389C12.582 8.389 13.1402 8.15779 13.5517 7.74625C13.9633 7.3347 14.1945 6.77652 14.1945 6.1945C14.1945 5.61248 13.9633 5.0543 13.5517 4.64275C13.1402 4.23121 12.582 4 12 4C11.418 4 10.8598 4.23121 10.4483 4.64275C10.0367 5.0543 9.8055 5.61248 9.8055 6.1945C9.8055 6.77652 10.0367 7.3347 10.4483 7.74625C10.8598 8.15779 11.418 8.389 12 8.389ZM12 9.889C12.4852 9.889 12.9657 9.79343 13.414 9.60774C13.8623 9.42204 14.2696 9.14987 14.6128 8.80676C14.9559 8.46365 15.228 8.05631 15.4137 7.60802C15.5994 7.15972 15.695 6.67923 15.695 6.194C15.695 5.70877 15.5994 5.22828 15.4137 4.77998C15.228 4.33169 14.9559 3.92435 14.6128 3.58124C14.2696 3.23813 13.8623 2.96596 13.414 2.78027C12.9657 2.59457 12.4852 2.499 12 2.499C11.02 2.499 10.0802 2.88829 9.38724 3.58124C8.69429 4.27419 8.305 5.21403 8.305 6.194C8.305 7.17397 8.69429 8.11381 9.38724 8.80676C10.0802 9.49971 11.02 9.889 12 9.889ZM12.384 12.973H11.616C9.698 12.973 7.85061 13.6966 6.44284 14.9993C5.03507 16.302 4.17057 18.0878 4.022 20H19.978C19.8294 18.0878 18.9649 16.302 17.5572 14.9993C16.1494 13.6966 14.302 12.973 12.384 12.973ZM11.616 11.473C9.19829 11.473 6.8796 12.4334 5.17001 14.143C3.46043 15.8526 2.5 18.1713 2.5 20.589C2.5 21.092 2.908 21.5 3.412 21.5H20.588C20.8297 21.5 21.0615 21.4041 21.2325 21.2332C21.4035 21.0624 21.4997 20.8307 21.5 20.589C21.5 18.1713 20.5396 15.8526 18.83 14.143C17.1204 12.4334 14.8017 11.473 12.384 11.473H11.616Z" fill="black"/>
</svg>
