<svg width="24" height="24" viewBox="0 0 24 24" fill="none" xmlns="http://www.w3.org/2000/svg">
<path d="M10.521 16.57C10.3694 16.6625 10.196 16.713 10.0185 16.7163C9.84093 16.7195 9.66572 16.6755 9.51086 16.5886C9.35599 16.5018 9.22704 16.3753 9.13725 16.2221C9.04747 16.0689 9.0001 15.8946 9 15.717V8.283C9.0001 8.10544 9.04747 7.93111 9.13725 7.77792C9.22704 7.62473 9.35599 7.4982 9.51086 7.41135C9.66572 7.3245 9.84093 7.28045 10.0185 7.28372C10.196 7.287 10.3694 7.33749 10.521 7.43L16.604 11.147C16.75 11.2364 16.8707 11.3617 16.9544 11.5111C17.0381 11.6604 17.0821 11.8288 17.0821 12C17.0821 12.1712 17.0381 12.3396 16.9544 12.4889C16.8707 12.6383 16.75 12.7636 16.604 12.853L10.52 16.57H10.521Z" fill="black"/>
</svg>
